# xmcd
# 
# Track frame offsets:
#     150
#     16230
#     34739
#     45049
#     58114
#     73316
#     84447
#     93504
#     103036
#     119667
#     133124
#     148657
#     166776
# 
# Disc length: 2360
# 
# Revision: 0
# Processed by: cddbd v1.5.2PL0 Copyright (c) Steve Scherf et al.
# Submitted via: fre:ac v1.0.27
# 
DISCID=af09360d
DTITLE=Lindsay Ritch - III
DYEAR=2004
DGENRE=Celtic
TTITLE0=Le Branle des Chaveux
TTITLE1=Don Roberto's Sabbath Tune for a Found Harmonium Scarborough Fair A Costa de Galicia
TTITLE2=Tune for a Found Harmonium
TTITLE3=Scarborough Fair
TTITLE4=A Costa de Galicia
TTITLE5=Cooley's Reel
TTITLE6=Old Tom's Petticoats
TTITLE7=Natural Bridge Blues
TTITLE8=Wild Mountain Thyme
TTITLE9=Coleg y Br Fyrgol Abertawe/Put ur y Bys
TTITLE10=The Heart Asks Pleasure First
TTITLE11=Equinox
TTITLE12=Silent Night
EXTD=
EXTT0=
EXTT1=
EXTT2=
EXTT3=
EXTT4=
EXTT5=
EXTT6=
EXTT7=
EXTT8=
EXTT9=
EXTT10=
EXTT11=
EXTT12=
PLAYORDER=
